<svg width="313" height="71" viewBox="0 0 313 71" fill="none" xmlns="http://www.w3.org/2000/svg">
<circle cx="2.08824" cy="2.08824" r="2.08824" fill="#C50000"/>
<circle cx="18.4848" cy="2.08824" r="2.08824" fill="#C50000"/>
<circle cx="34.8812" cy="2.08824" r="2.08824" fill="#C50000"/>
<circle cx="2.08824" cy="18.7941" r="2.08824" fill="#C50000"/>
<circle cx="18.4848" cy="18.7941" r="2.08824" fill="#C50000"/>
<circle cx="34.8812" cy="18.7941" r="2.08824" fill="#C50000"/>
<circle cx="50.8137" cy="18.7941" r="2.08824" fill="#C50000"/>
<circle cx="67.2102" cy="18.7941" r="2.08824" fill="#C50000"/>
<circle cx="83.6067" cy="18.7941" r="2.08824" fill="#C50000"/>
<circle cx="99.5392" cy="18.7941" r="2.08824" fill="#C50000"/>
<circle cx="115.936" cy="18.7941" r="2.08824" fill="#C50000"/>
<circle cx="132.332" cy="18.7941" r="2.08824" fill="#C50000"/>
<circle cx="148.265" cy="18.7941" r="2.08824" fill="#C50000"/>
<circle cx="164.661" cy="18.7941" r="2.08824" fill="#C50000"/>
<circle cx="181.058" cy="18.7941" r="2.08824" fill="#C50000"/>
<circle cx="196.99" cy="18.7941" r="2.08824" fill="#C50000"/>
<circle cx="213.387" cy="18.7941" r="2.08824" fill="#C50000"/>
<circle cx="229.783" cy="18.7941" r="2.08824" fill="#C50000"/>
<circle cx="245.716" cy="18.7941" r="2.08824" fill="#C50000"/>
<circle cx="262.112" cy="18.7941" r="2.08824" fill="#C50000"/>
<circle cx="278.509" cy="18.7941" r="2.08824" fill="#C50000"/>
<circle cx="294.441" cy="18.7941" r="2.08824" fill="#C50000"/>
<circle cx="310.838" cy="18.7941" r="2.08824" fill="#C50000"/>
<circle cx="294.441" cy="18.7941" r="2.08824" fill="#C50000"/>
<circle cx="310.838" cy="18.7941" r="2.08824" fill="#C50000"/>
<circle cx="50.8137" cy="2.08824" r="2.08824" fill="#C50000"/>
<circle cx="67.2102" cy="2.08824" r="2.08824" fill="#C50000"/>
<circle cx="83.6067" cy="2.08824" r="2.08824" fill="#C50000"/>
<circle cx="99.5392" cy="2.08824" r="2.08824" fill="#C50000"/>
<circle cx="115.936" cy="2.08824" r="2.08824" fill="#C50000"/>
<circle cx="132.332" cy="2.08824" r="2.08824" fill="#C50000"/>
<circle cx="148.265" cy="2.08824" r="2.08824" fill="#C50000"/>
<circle cx="164.661" cy="2.08824" r="2.08824" fill="#C50000"/>
<circle cx="181.058" cy="2.08824" r="2.08824" fill="#C50000"/>
<circle cx="196.99" cy="2.08824" r="2.08824" fill="#C50000"/>
<circle cx="213.387" cy="2.08824" r="2.08824" fill="#C50000"/>
<circle cx="229.783" cy="2.08824" r="2.08824" fill="#C50000"/>
<circle cx="245.716" cy="2.08824" r="2.08824" fill="#C50000"/>
<circle cx="262.112" cy="2.08824" r="2.08824" fill="#C50000"/>
<circle cx="278.509" cy="2.08824" r="2.08824" fill="#C50000"/>
<circle cx="294.441" cy="2.08824" r="2.08824" fill="#C50000"/>
<circle cx="310.838" cy="2.08824" r="2.08824" fill="#C50000"/>
<circle cx="294.441" cy="2.08824" r="2.08824" fill="#C50000"/>
<circle cx="310.838" cy="2.08824" r="2.08824" fill="#C50000"/>
<circle cx="2.08824" cy="35.5" r="2.08824" fill="#C50000"/>
<circle cx="18.4848" cy="35.5" r="2.08824" fill="#C50000"/>
<circle cx="34.8812" cy="35.5" r="2.08824" fill="#C50000"/>
<circle cx="2.08824" cy="52.2059" r="2.08824" fill="#C50000"/>
<circle cx="18.4848" cy="52.2059" r="2.08824" fill="#C50000"/>
<circle cx="34.8812" cy="52.2059" r="2.08824" fill="#C50000"/>
<circle cx="2.08824" cy="68.9118" r="2.08824" fill="#C50000"/>
<circle cx="18.4848" cy="68.9118" r="2.08824" fill="#C50000"/>
<circle cx="34.8812" cy="68.9118" r="2.08824" fill="#C50000"/>
</svg>
